<?xml version="1.0" encoding="iso-8859-1"?>
<!-- Generator: Adobe Illustrator 19.0.0, SVG Export Plug-In . SVG Version: 6.00 Build 0)  -->
<svg version="1.1" id="Layer_1" xmlns="http://www.w3.org/2000/svg" xmlns:xlink="http://www.w3.org/1999/xlink" x="0px" y="0px"
	 viewBox="0 0 486.36 486.36" style="enable-background:new 0 0 486.36 486.36;" xml:space="preserve">
<g id="XMLID_873_">
	<g id="XMLID_878_">
		<path id="XMLID_237_" style="fill:#663A00;" d="M243.173,200.006c-8.127,0-14.805-6.494-14.989-14.662
			c-1.144-50.708-16.62-92.366-45.999-123.816c-22.042-23.597-44.191-32.444-44.413-32.531c-7.74-2.953-11.591-11.609-8.638-19.35
			c2.953-7.74,11.653-11.608,19.391-8.657c1.12,0.427,27.733,10.784,54.395,38.799c24.292,25.525,53.598,71.38,55.255,144.877
			c0.187,8.282-6.376,15.148-14.658,15.335C243.404,200.004,243.287,200.006,243.173,200.006z"/>
	</g>
	<path id="XMLID_877_" style="fill:#4E901E;" d="M353.812,8.82c-3.377-2.977-7.91-4.279-12.353-3.549
		c-6.623,1.089-65.41,11.442-89.88,39.203c-27.532,31.233-31.597,71.128-9.254,90.823c7.722,6.807,17.776,10.405,29.076,10.405
		c20.386,0,42.767-11.583,59.868-30.983c24.471-27.761,27.365-87.382,27.614-94.089C359.05,16.132,357.189,11.797,353.812,8.82z"/>
	<path id="XMLID_874_" style="fill:#47821C;" d="M353.812,8.82L242.325,135.298c7.722,6.807,17.776,10.405,29.076,10.405
		c20.386,0,42.767-11.583,59.868-30.983c24.471-27.761,27.365-87.382,27.614-94.089C359.05,16.132,357.189,11.797,353.812,8.82z"/>
	<path id="XMLID_872_" style="fill:#CD2A00;" d="M449.473,244.179c-7.534-44.044-28.648-77.884-59.451-95.285
		c-14.152-7.995-29.569-12.049-45.822-12.049c-14.078,0-28.438,3.054-42.683,9.079c-18.745,7.927-38.381,11.947-58.362,11.947
		c-19.964,0-39.57-4.014-58.272-11.931c-14.258-6.035-28.632-9.095-42.722-9.095c-16.254,0-31.671,4.054-45.823,12.049
		c-30.803,17.401-51.917,51.241-59.451,95.285c-7.26,42.439-0.966,89.587,17.724,132.758
		c31.1,71.836,97.454,109.422,146.927,109.422c14.151,0,26.617-2.989,37.053-8.884c1.539-0.87,3.07-1.826,4.589-2.868
		c1.52,1.042,3.051,1.999,4.591,2.869c10.432,5.893,22.897,8.881,37.05,8.883c0.006,0,0.003,0,0.009,0
		c49.469,0,115.82-37.588,146.919-109.422C450.439,333.766,456.733,286.618,449.473,244.179z"/>
	<path id="XMLID_871_" style="fill:#AB2300;" d="M449.473,244.179c-7.534-44.044-28.648-77.884-59.451-95.285
		c-14.152-7.995-29.569-12.049-45.822-12.049c-14.078,0-28.438,3.054-42.683,9.079c-18.737,7.924-38.365,11.943-58.337,11.947
		v316.737c1.52,1.042,3.051,1.999,4.591,2.869c10.432,5.893,22.897,8.881,37.05,8.883c0.006,0,0.003,0,0.009,0
		c49.469,0,115.82-37.588,146.919-109.422C450.439,333.766,456.733,286.618,449.473,244.179z"/>
</g>
<g>
</g>
<g>
</g>
<g>
</g>
<g>
</g>
<g>
</g>
<g>
</g>
<g>
</g>
<g>
</g>
<g>
</g>
<g>
</g>
<g>
</g>
<g>
</g>
<g>
</g>
<g>
</g>
<g>
</g>
</svg>
