<?xml version="1.0" encoding="iso-8859-1"?>
<!-- Generator: Adobe Illustrator 19.0.0, SVG Export Plug-In . SVG Version: 6.00 Build 0)  -->
<svg version="1.1" id="Layer_1" xmlns="http://www.w3.org/2000/svg" xmlns:xlink="http://www.w3.org/1999/xlink" x="0px" y="0px"
	 viewBox="0 0 463.08 463.08" style="enable-background:new 0 0 463.08 463.08;" xml:space="preserve">
<g id="XMLID_999_">
	<circle id="XMLID_1812_" style="fill:#787680;" cx="231.54" cy="231.54" r="231.54"/>
	<circle id="XMLID_1907_" style="fill:#E0E0E2;" cx="231.54" cy="231.54" r="198.097"/>
	<path id="XMLID_1906_" style="fill:#D8D7DA;" d="M231.54,33.443v396.194c109.406,0,198.097-88.691,198.097-198.097
		S340.945,33.443,231.54,33.443z"/>
	<g id="XMLID_1001_">
		<path id="XMLID_1002_" style="fill:#3E3D42;" d="M184.245,271.124c-4.524,0-8.917-2.375-11.294-6.598
			c-3.508-6.231-1.301-14.127,4.93-17.634l36.245-20.407l-41.297-76.848c-3.385-6.299-1.023-14.149,5.276-17.534
			c6.298-3.384,14.15-1.023,17.534,5.276l47.306,88.031c3.338,6.212,1.092,13.952-5.053,17.411l-47.307,26.634
			C188.576,270.587,186.396,271.124,184.245,271.124z"/>
	</g>
	<g id="XMLID_1905_">
		<circle style="fill:#1A6FB0;" cx="231.54" cy="231.54" r="30.934"/>
	</g>
	<g id="XMLID_1003_">
		<g id="XMLID_1004_">
			<path id="XMLID_1005_" style="fill:#898890;" d="M231.54,92.765c-7.151,0-12.948-5.797-12.948-12.948V61.385
				c0-7.151,5.797-12.947,12.948-12.947s12.947,5.797,12.947,12.947v18.433C244.488,86.969,238.691,92.765,231.54,92.765z"/>
		</g>
		<g id="XMLID_1006_">
			<path id="XMLID_1007_" style="fill:#898890;" d="M231.539,414.641L231.539,414.641c-7.151,0-12.947-5.798-12.947-12.948
				l0.001-18.432c0-7.15,5.798-12.947,12.948-12.947c0,0,0,0,0.001,0c7.151,0,12.947,5.798,12.947,12.948l-0.001,18.433
				C244.487,408.844,238.689,414.641,231.539,414.641z"/>
		</g>
	</g>
	<g id="XMLID_1009_">
		<g id="XMLID_1010_">
			<path id="XMLID_1011_" style="fill:#898890;" d="M401.694,244.487h-18.433c-7.151,0-12.947-5.797-12.947-12.948
				s5.797-12.947,12.947-12.947h18.433c7.151,0,12.947,5.797,12.947,12.947C414.641,238.69,408.844,244.487,401.694,244.487z"/>
		</g>
		<g id="XMLID_1012_">
			<path id="XMLID_1021_" style="fill:#898890;" d="M79.818,244.487H61.386c-7.151,0-12.947-5.797-12.947-12.948
				s5.797-12.947,12.947-12.947h18.433c7.151,0,12.947,5.797,12.947,12.947C92.766,238.69,86.969,244.487,79.818,244.487z"/>
		</g>
	</g>
	<g id="XMLID_1904_">
		<path style="fill:#165C92;" d="M231.54,200.606v61.867c17.084,0,30.933-13.85,30.933-30.933
			C262.473,214.456,248.624,200.606,231.54,200.606z"/>
	</g>
	<path id="XMLID_2087_" style="opacity:0.1;enable-background:new    ;" d="M231.54,64.376c104.201,0,189.608,80.453,197.499,182.63
		c0.394-5.105,0.598-10.262,0.598-15.467c0-109.406-88.691-198.097-198.097-198.097S33.443,122.133,33.443,231.539
		c0,5.205,0.204,10.362,0.598,15.467C41.932,144.829,127.339,64.376,231.54,64.376z"/>
</g>
<g>
</g>
<g>
</g>
<g>
</g>
<g>
</g>
<g>
</g>
<g>
</g>
<g>
</g>
<g>
</g>
<g>
</g>
<g>
</g>
<g>
</g>
<g>
</g>
<g>
</g>
<g>
</g>
<g>
</g>
</svg>
