<?xml version="1.0" encoding="iso-8859-1"?>
<!-- Generator: Adobe Illustrator 19.0.0, SVG Export Plug-In . SVG Version: 6.00 Build 0)  -->
<svg version="1.1" id="Layer_1" xmlns="http://www.w3.org/2000/svg" xmlns:xlink="http://www.w3.org/1999/xlink" x="0px" y="0px"
	 viewBox="0 0 450.592 450.592" style="enable-background:new 0 0 450.592 450.592;" xml:space="preserve">
<g id="XMLID_102_">
	<circle id="XMLID_1196_" style="fill:#898890;" cx="225.296" cy="409.107" r="41.485"/>
	<path id="XMLID_1199_" style="fill:#787680;" d="M225.296,367.622v82.969c22.911,0,41.485-18.573,41.485-41.485
		C266.781,386.195,248.207,367.622,225.296,367.622z"/>
	<path id="XMLID_1202_" style="fill:#FFE477;" d="M318.48,279.942c6.995-21.259,16.54-41.73,28.504-60.919
		c14.143-22.684,21.619-48.865,21.619-75.715C368.603,64.287,304.316,0,225.296,0S81.988,64.287,81.988,143.307
		c0,26.851,7.476,53.032,21.619,75.715c11.964,19.189,21.508,39.661,28.503,60.919L318.48,279.942L318.48,279.942z"/>
	<path id="XMLID_1203_" style="fill:#9F9EA8;" d="M133.722,284.996c7.437,24.129,11.61,49.212,12.29,74.554
		c0.386,14.403,6.283,27.87,16.607,37.921c10.323,10.05,23.943,15.585,38.352,15.585h48.65c14.408,0,28.028-5.535,38.352-15.585
		c10.323-10.051,16.222-23.518,16.607-37.921c0.68-25.342,4.853-50.425,12.289-74.553L133.722,284.996L133.722,284.996z"/>
	<path id="XMLID_1204_" style="fill:#FFDE55;" d="M318.48,279.942c6.995-21.259,16.54-41.73,28.504-60.919
		c14.143-22.684,21.619-48.865,21.619-75.715C368.603,64.287,304.316,0,225.296,0v279.942H318.48z"/>
	<path id="XMLID_1205_" style="fill:#898890;" d="M225.296,284.996v128.06h24.325c14.408,0,28.028-5.535,38.352-15.585
		c10.323-10.051,16.222-23.518,16.607-37.921c0.68-25.342,4.853-50.425,12.289-74.553h-91.573V284.996z"/>
	<g id="XMLID_221_">
		<path id="XMLID_798_" style="fill:#898890;" d="M319.005,300.6H131.587c-8.284,0-15-6.716-15-15s6.716-15,15-15h187.418
			c8.284,0,15,6.716,15,15S327.289,300.6,319.005,300.6z"/>
	</g>
	<g id="XMLID_222_">
		<path id="XMLID_799_" style="fill:#898890;" d="M308.505,355.6H142.087c-8.284,0-15-6.716-15-15s6.716-15,15-15h166.418
			c8.284,0,15,6.716,15,15S316.789,355.6,308.505,355.6z"/>
	</g>
	<g id="XMLID_223_">
		<path id="XMLID_800_" style="fill:#EEBF00;" d="M253.129,180.137c-3.979,0-7.794-1.581-10.606-4.394l-17.227-17.227
			l-17.227,17.227c-2.813,2.813-6.628,4.394-10.606,4.394s-7.794-1.581-10.607-4.394l-17.227-17.227l-17.228,17.227
			c-5.857,5.858-15.355,5.857-21.213,0c-5.858-5.858-5.858-15.355,0-21.213l27.834-27.834c2.813-2.813,6.628-4.393,10.606-4.393
			s7.794,1.58,10.606,4.394l17.227,17.227l17.227-17.227c2.813-2.813,6.628-4.394,10.606-4.394s7.794,1.58,10.606,4.394
			l17.227,17.227l17.228-17.227c2.813-2.813,6.628-4.393,10.606-4.393c3.979,0,7.794,1.58,10.606,4.394l27.833,27.833
			c5.858,5.858,5.858,15.355,0,21.213s-15.356,5.857-21.213,0l-17.227-17.227l-17.227,17.227
			C260.923,178.557,257.107,180.137,253.129,180.137z"/>
	</g>
	<path id="XMLID_224_" style="fill:#DDB200;" d="M319.402,154.53l-27.833-27.833c-2.813-2.813-6.628-4.394-10.606-4.394
		s-7.794,1.58-10.606,4.393l-17.228,17.227l-17.227-17.227c-2.813-2.813-6.628-4.394-10.606-4.394v36.213l17.227,17.227
		c2.813,2.813,6.628,4.394,10.606,4.394s7.794-1.58,10.607-4.394l17.227-17.227l17.227,17.227c5.856,5.857,15.354,5.858,21.213,0
		C325.261,169.886,325.261,160.388,319.402,154.53z"/>
	<path id="XMLID_225_" style="fill:#787680;" d="M319.005,270.6h-93.709v30h93.709c8.284,0,15-6.716,15-15
		C334.005,277.315,327.289,270.6,319.005,270.6z"/>
	<path id="XMLID_228_" style="fill:#787680;" d="M308.505,325.6h-83.209v30h83.209c8.284,0,15-6.716,15-15
		C323.505,332.315,316.789,325.6,308.505,325.6z"/>
</g>
<g>
</g>
<g>
</g>
<g>
</g>
<g>
</g>
<g>
</g>
<g>
</g>
<g>
</g>
<g>
</g>
<g>
</g>
<g>
</g>
<g>
</g>
<g>
</g>
<g>
</g>
<g>
</g>
<g>
</g>
</svg>
